<svg xmlns="http://www.w3.org/2000/svg" viewBox="0 0 750 500"><g id="freepik--background-complete--inject-33"><path d="M598.94,354.43c0-1.59-.07-117.47-.19-304.89l.19.2-547.8.06h0l.26-.26c0,107.8,0,210.93,0,304.89l-.24-.24,547.84.24-547.84.24h-.24v-.24c0-94,0-197.09,0-304.89v-.26h.3l547.8.06h.2v.2C599,237,599,352.84,598.94,354.43Z" style="fill:#e0e0e0"></path><rect x="51.1" y="49.54" width="547.85" height="23.35" style="fill:#e0e0e0"></rect><path d="M69,60.52a3.77,3.77,0,1,1-3.76-3.77A3.76,3.76,0,0,1,69,60.52Z" style="fill:#fff"></path><path d="M80.64,60.52a3.77,3.77,0,1,1-3.76-3.77A3.76,3.76,0,0,1,80.64,60.52Z" style="fill:#fff"></path><path d="M92.3,60.52a3.77,3.77,0,1,1-3.77-3.77A3.76,3.76,0,0,1,92.3,60.52Z" style="fill:#fff"></path></g><g id="freepik--Page--inject-33"><rect x="92.17" y="96.12" width="554.08" height="369.38" style="fill:#fafafa"></rect><rect x="92.17" y="96.12" width="554.08" height="23.61" style="fill:#263238"></rect><path d="M646.25,119.73c0-.48,0-7.45-.07-23.61l.07.07-554,.19h0l.26-.26v23.61l-.26-.26,554.08.26L92.17,120h-.26V95.86h.29l554.05.19h.07v.07C646.27,112.28,646.25,119.25,646.25,119.73Z" style="fill:#263238"></path><path d="M110.27,107.22a3.81,3.81,0,1,1-3.81-3.81A3.81,3.81,0,0,1,110.27,107.22Z" style="fill:#e0e0e0"></path><path d="M122.05,107.22a3.81,3.81,0,1,1-3.81-3.81A3.8,3.8,0,0,1,122.05,107.22Z" style="fill:#e0e0e0"></path><path d="M133.84,107.22a3.81,3.81,0,1,1-3.81-3.81A3.81,3.81,0,0,1,133.84,107.22Z" style="fill:#e0e0e0"></path><path d="M247.71,188h-22l-4.2,10.16H210.27l21.12-47.4h10.84l21.19,47.4H251.91Zm-3.45-8.33-7.52-18.15-7.51,18.15Z" style="fill:#455a64"></path><path d="M307.31,179.9c0,11.45-7.93,18.76-18.15,18.76-4.88,0-8.81-1.56-11.45-4.74v4.2H267.62V147.87h10.57v17.68c2.71-3,6.43-4.4,11-4.4C299.38,161.15,307.31,168.46,307.31,179.9Zm-10.7,0c0-6.29-4-10.09-9.28-10.09s-9.28,3.8-9.28,10.09,4,10.09,9.28,10.09S296.61,186.2,296.61,179.9Z" style="fill:#455a64"></path><path d="M311.64,179.9c0-11,8.46-18.75,20-18.75s20,7.78,20,18.75-8.4,18.76-20,18.76S311.64,190.87,311.64,179.9Zm29.32,0c0-6.29-4-10.09-9.28-10.09s-9.34,3.8-9.34,10.09S326.4,190,331.68,190,341,186.2,341,179.9Z" style="fill:#455a64"></path><path d="M395.41,161.69v36.43h-10v-4.33a14.72,14.72,0,0,1-11.3,4.87c-9.15,0-15.58-5.14-15.58-16.39V161.69h10.56v19c0,6.09,2.71,8.8,7.39,8.8,4.87,0,8.39-3.12,8.39-9.82v-18Z" style="fill:#455a64"></path><path d="M428.72,196.36a15.06,15.06,0,0,1-8.6,2.3c-8.6,0-13.61-4.4-13.61-13.07v-15h-5.62V162.5h5.62v-8.87h10.57v8.87h9.07v8.13h-9.07v14.83c0,3.11,1.69,4.8,4.53,4.8a7.12,7.12,0,0,0,4.27-1.35Z" style="fill:#455a64"></path><path d="M490.55,161.69v36.43h-10v-4.33a14.75,14.75,0,0,1-11.31,4.87c-9.14,0-15.58-5.14-15.58-16.39V161.69h10.57v19c0,6.09,2.71,8.8,7.38,8.8,4.88,0,8.4-3.12,8.4-9.82v-18Z" style="fill:#455a64"></path><path d="M496.85,194.73l3.52-7.58A24.9,24.9,0,0,0,513,190.67c4.88,0,6.71-1.29,6.71-3.32,0-6-22,.14-22-14.42,0-6.91,6.23-11.78,16.86-11.78,5,0,10.57,1.15,14,3.18l-3.52,7.52a20.85,20.85,0,0,0-10.5-2.71c-4.74,0-6.77,1.49-6.77,3.38,0,6.23,22,.21,22,14.56,0,6.77-6.3,11.58-17.2,11.58C506.47,198.66,500.23,197,496.85,194.73Z" style="fill:#455a64"></path><path d="M582.26,465.47C560.88,443,529.49,432,498.44,432.22c-22.68.15-46.34,6.92-67.41-1.44-19.51-7.74-31.89-26.53-47.06-41a128.49,128.49,0,0,0-87.36-35.14c-21.82-.07-45.84,4.94-63.84-7.4-12.14-8.33-18.35-22.68-26.88-34.69-25-35.21-73.13-49.89-113.41-34.33l0,187Z" style="fill:#ebebeb"></path><path d="M646.25,465.5c0-1.7-.08-144.19-.21-369.38l.21.21-554,0h0l.26-.26c0,131.54,0,256.66,0,369.38l-.24-.24,554.08.24-554.08.24h-.24v-.24c0-112.72,0-237.84,0-369.38v-.26h.31l554,0h.21v.21C646.33,321.31,646.25,463.8,646.25,465.5Z" style="fill:#263238"></path><path d="M161.58,176.92c0,.37-2.72.68-6.09.68s-6.09-.31-6.09-.68,2.73-.67,6.09-.67S161.58,176.55,161.58,176.92Z" style="fill:#263238"></path><path d="M168.05,160.36c.37,0,.67,2.76.67,6.18s-.3,6.18-.67,6.18-.67-2.77-.67-6.18S167.68,160.36,168.05,160.36Z" style="fill:#263238"></path><path d="M174.94,176.53c0-.38,2.72-.68,6.08-.68s6.09.3,6.09.68-2.72.67-6.09.67S174.94,176.9,174.94,176.53Z" style="fill:#263238"></path><path d="M168.47,193.09c-.37,0-.67-2.77-.67-6.18s.3-6.18.67-6.18.67,2.77.67,6.18S168.84,193.09,168.47,193.09Z" style="fill:#263238"></path><path d="M178.31,186c-.28.23-1.48-.73-2.68-2.17s-1.93-2.78-1.65-3,1.49.73,2.68,2.16S178.6,185.75,178.31,186Z" style="fill:#263238"></path><path d="M177.74,167.2c.27.26-.53,1.49-1.77,2.74s-2.46,2.06-2.72,1.8.53-1.49,1.77-2.75S177.48,166.94,177.74,167.2Z" style="fill:#263238"></path><path d="M163.78,172c-.23.28-1.38-.28-2.57-1.27s-1.94-2-1.71-2.3,1.39.28,2.58,1.27S164,171.7,163.78,172Z" style="fill:#263238"></path><path d="M163.24,180.26c.27.26-.42,1.46-1.55,2.7s-2.26,2-2.53,1.78.41-1.45,1.54-2.69S163,180,163.24,180.26Z" style="fill:#263238"></path><path d="M505.18,144.87c0,.21-1.55.38-3.46.38s-3.46-.17-3.46-.38,1.55-.38,3.46-.38S505.18,144.66,505.18,144.87Z" style="fill:#263238"></path><path d="M508.85,135.47c.21,0,.38,1.57.38,3.5s-.17,3.51-.38,3.51-.38-1.57-.38-3.51S508.64,135.47,508.85,135.47Z" style="fill:#263238"></path><path d="M512.76,144.64c0-.21,1.55-.38,3.46-.38s3.45.17,3.45.38-1.54.39-3.45.39S512.76,144.86,512.76,144.64Z" style="fill:#263238"></path><path d="M509.09,154.05c-.21,0-.38-1.57-.38-3.51s.17-3.51.38-3.51.38,1.57.38,3.51S509.3,154.05,509.09,154.05Z" style="fill:#263238"></path><path d="M514.68,150c-.17.13-.85-.42-1.53-1.23s-1.09-1.58-.93-1.72.84.42,1.52,1.23S514.84,149.88,514.68,150Z" style="fill:#263238"></path><path d="M514.35,139.35c.15.15-.3.85-1,1.56s-1.4,1.16-1.55,1,.3-.84,1-1.55S514.2,139.2,514.35,139.35Z" style="fill:#263238"></path><path d="M506.43,142.07c-.14.16-.79-.16-1.46-.72s-1.11-1.14-1-1.3.79.15,1.46.71S506.56,141.91,506.43,142.07Z" style="fill:#263238"></path><path d="M506.12,146.77c.15.14-.24.82-.88,1.53s-1.28,1.15-1.44,1,.24-.83.88-1.53S506,146.63,506.12,146.77Z" style="fill:#263238"></path><path d="M348.13,223.53a12.25,12.25,0,0,1-5.3,0,11.85,11.85,0,0,1,5.3,0Z" style="fill:#263238"></path><path d="M351,216.32a12.57,12.57,0,0,1,0,5.37,12.17,12.17,0,0,1,0-5.37Z" style="fill:#263238"></path><path d="M353.94,223.35a12.25,12.25,0,0,1,5.3,0,11.85,11.85,0,0,1-5.3,0Z" style="fill:#263238"></path><path d="M351.13,230.56a12.62,12.62,0,0,1,0-5.38,12.62,12.62,0,0,1,0,5.38Z" style="fill:#263238"></path><path d="M355.41,227.47c-.12.1-.64-.32-1.16-.94s-.85-1.21-.72-1.32.65.32,1.17.94S355.54,227.37,355.41,227.47Z" style="fill:#263238"></path><path d="M355.17,219.29c.11.12-.23.65-.77,1.2s-1.08.89-1.19.78.23-.65.77-1.19S355.05,219.18,355.17,219.29Z" style="fill:#263238"></path><path d="M349.09,221.38c-.1.12-.6-.12-1.12-.55s-.85-.88-.74-1,.6.12,1.12.55S349.19,221.25,349.09,221.38Z" style="fill:#263238"></path><path d="M348.85,225c.12.11-.18.63-.67,1.17s-1,.89-1.1.78.18-.63.67-1.17S348.73,224.87,348.85,225Z" style="fill:#263238"></path><path d="M488.92,234.74c0,.21-1.55.38-3.46.38S482,235,482,234.74s1.54-.39,3.45-.39S488.92,234.53,488.92,234.74Z" style="fill:#e0e0e0"></path><path d="M492.59,225.33c.21,0,.38,1.57.38,3.51s-.17,3.51-.38,3.51-.38-1.57-.38-3.51S492.38,225.33,492.59,225.33Z" style="fill:#e0e0e0"></path><path d="M496.5,234.51c0-.21,1.55-.38,3.46-.38s3.45.17,3.45.38-1.54.38-3.45.38S496.5,234.72,496.5,234.51Z" style="fill:#e0e0e0"></path><path d="M492.83,243.92c-.21,0-.38-1.58-.38-3.51s.17-3.51.38-3.51.38,1.57.38,3.51S493,243.92,492.83,243.92Z" style="fill:#e0e0e0"></path><path d="M498.42,239.88c-.17.14-.85-.41-1.53-1.22s-1.09-1.59-.93-1.72.84.41,1.52,1.22S498.58,239.75,498.42,239.88Z" style="fill:#e0e0e0"></path><path d="M498.09,229.22c.15.15-.3.84-1,1.55s-1.4,1.17-1.55,1,.3-.84,1-1.56S497.94,229.07,498.09,229.22Z" style="fill:#e0e0e0"></path><path d="M490.17,231.93c-.14.17-.79-.15-1.46-.71s-1.11-1.15-1-1.31.79.16,1.46.72S490.3,231.77,490.17,231.93Z" style="fill:#e0e0e0"></path><path d="M489.86,236.63c.15.15-.24.83-.88,1.53s-1.28,1.16-1.44,1,.24-.83.88-1.53S489.7,236.49,489.86,236.63Z" style="fill:#e0e0e0"></path><path d="M306.68,145.48l.45,1.08a7.68,7.68,0,0,0,4.18,4.14l1.18.48-1.13.45a7.64,7.64,0,0,0-4.21,4.23l-.32.78-.48-1a7.59,7.59,0,0,0-4.27-3.87l-1-.38,1.34-.64a7.67,7.67,0,0,0,3.72-4Z" style="fill:#e0e0e0"></path><path d="M131.05,226.4l.3.72a5.07,5.07,0,0,0,2.78,2.75l.78.32-.75.3a5.11,5.11,0,0,0-2.8,2.81l-.21.52-.32-.65a5.08,5.08,0,0,0-2.83-2.58l-.68-.24.89-.43a5.17,5.17,0,0,0,2.47-2.62Z" style="fill:#e0e0e0"></path><path d="M573.6,156.64l.29.72a5.15,5.15,0,0,0,2.78,2.76l.78.31-.74.31a5.08,5.08,0,0,0-2.81,2.8l-.21.53-.31-.66a5.09,5.09,0,0,0-2.84-2.57l-.68-.25.89-.43a5,5,0,0,0,2.47-2.62Z" style="fill:#e0e0e0"></path><path d="M574.93,187l.45,1.08a7.66,7.66,0,0,0,4.18,4.15l1.18.47-1.13.46a7.67,7.67,0,0,0-4.22,4.22l-.31.79-.48-1a7.59,7.59,0,0,0-4.27-3.87l-1-.37,1.34-.65a7.65,7.65,0,0,0,3.72-3.94Z" style="fill:#263238"></path><path d="M390.16,138.93l.21.51a3.59,3.59,0,0,0,2,1.94l.55.23-.53.21a3.58,3.58,0,0,0-2,2l-.15.37-.23-.46a3.54,3.54,0,0,0-2-1.82l-.48-.17.63-.31a3.59,3.59,0,0,0,1.75-1.85Z" style="fill:#263238"></path><path d="M250.76,221.83l.27.65a4.58,4.58,0,0,0,2.52,2.5l.71.29-.68.27a4.58,4.58,0,0,0-2.54,2.55l-.19.48-.29-.6a4.62,4.62,0,0,0-2.58-2.33l-.62-.23.81-.39a4.66,4.66,0,0,0,2.25-2.38Z" style="fill:#263238"></path></g><g id="freepik--speech-bubble--inject-33"><path d="M655.32,196.59A42.49,42.49,0,0,0,626.2,270l-5.74,20.1,20.3-11.1a42.51,42.51,0,1,0,14.56-82.45Z" style="fill:#f5f5f5"></path><path d="M655.32,196.59s.25,0,.76,0l2.22.09c.49,0,1,0,1.64.09l2,.29c.71.12,1.48.19,2.29.37l2.55.64a42,42,0,0,1,24.75,18.42l1.32,2.17c.38.76.76,1.54,1.14,2.33a40.95,40.95,0,0,1,4,16.11,44.41,44.41,0,0,1-.1,6c-.07,1-.28,2-.42,3-.08.51-.15,1-.23,1.53l-.39,1.52a40.24,40.24,0,0,1-4.87,11.89,42.69,42.69,0,0,1-20.71,17.69,43.52,43.52,0,0,1-29.17,1l-1.38-.48.21,0c-6.92,3.79-13.71,7.51-20.3,11.1l-.53.3.16-.59c2-6.93,3.91-13.65,5.75-20.1l.07.25a44.73,44.73,0,0,1-6.92-8.42,44.07,44.07,0,0,1-4.44-9.48,42.78,42.78,0,0,1-1.93-9.82c-.08-.81-.11-1.62-.12-2.42a21.31,21.31,0,0,1,0-2.4,32.69,32.69,0,0,1,.41-4.67A42.38,42.38,0,0,1,619,216.82a43.62,43.62,0,0,1,9.81-11.08l2.64-2,2.67-1.62a20.77,20.77,0,0,1,2.59-1.36c.86-.39,1.66-.84,2.5-1.14a43.88,43.88,0,0,1,8.64-2.45l3.22-.47,2.36-.1,1.45,0h.49l-.49,0-1.44.1-2.36.14-3.2.5a44.43,44.43,0,0,0-8.58,2.51c-.83.3-1.62.76-2.47,1.15a22.18,22.18,0,0,0-2.58,1.37L631.57,204,629,206a43.09,43.09,0,0,0-9.68,11,42,42,0,0,0-5.77,16.06,33.62,33.62,0,0,0-.4,4.63,20.75,20.75,0,0,0,0,2.37c0,.79,0,1.59.12,2.4a42.87,42.87,0,0,0,1.93,9.7,42.56,42.56,0,0,0,11.26,17.69l.11.1-.05.15c-1.83,6.44-3.75,13.16-5.72,20.1l-.37-.3,20.29-11.1.1-.06.12,0,1.37.47a42.89,42.89,0,0,0,28.81-1,42.26,42.26,0,0,0,20.49-17.47,39.91,39.91,0,0,0,4.84-11.75c.13-.5.26-1,.38-1.5l.24-1.52c.13-1,.34-2,.42-3a45.23,45.23,0,0,0,.11-5.92,40.49,40.49,0,0,0-3.91-16l-1.12-2.31-1.3-2.15a42,42,0,0,0-12.28-12.79,42.43,42.43,0,0,0-12.21-5.63l-2.54-.67c-.8-.18-1.57-.26-2.27-.39l-2-.31c-.6-.09-1.15-.08-1.63-.12l-2.22-.14C655.57,196.62,655.32,196.59,655.32,196.59Z" style="fill:#263238"></path><path d="M646,233.28h3l6.56-9.15v-6s4.65-.28,4.1,7.58,0,5.85,0,5.85,9.86,0,10.68.9c.6.62.87,10.42,1,15.74a5.75,5.75,0,0,1-4.07,5.79,4.43,4.43,0,0,1-1.07.14c-2.46,0-15-2-15-2H646Z" style="fill:#263238"></path><polygon points="637.43 231.63 639.28 252.19 644.43 252.19 644.43 232.04 637.43 231.63" style="fill:#263238"></polygon></g></svg>