<svg xmlns="http://www.w3.org/2000/svg" viewBox="0 0 750 500"><g id="freepik--Trees--inject-56"><path d="M197.07,259.75s-17.27-6.83-30.94,17c-14,24.45,3.61,40.53,17.57,30.93,0,0,11,23,32.88,17.49s25.45-23,25.45-23,19.45,1.35,20-13.16-13.72-27.38-13.72-27.38-.87-36.15-24.42-35.85S197.07,259.75,197.07,259.75Z" style="fill:#455a64"></path><polygon points="213.23 387.85 218.04 280.27 223.09 387.84 213.23 387.85" style="fill:#263238"></polygon><polygon points="216.62 320.7 201.47 290.54 219.1 315.99 216.62 320.7" style="fill:#263238"></polygon><path d="M659.05,250.35S622,332.67,682.49,332.73s21.38-85.13,21.38-85.13,14-6.15-2.18-52.11-23.46-46-30.2-46c-8.53,0-16.49,19.87-10.7,50.41C660.79,199.93,639.46,238,659.05,250.35Z" style="fill:#37474f"></path><polygon points="687.8 387.36 682.1 263.29 676.13 387.35 687.8 387.36" style="fill:#263238"></polygon><polygon points="684.42 315.31 662.46 289.6 679.67 318.7 684.42 315.31" style="fill:#263238"></polygon><path d="M282.34,272.43s31.09,69.05-19.67,69.11-17.94-71.42-17.94-71.42S233,265,246.57,226.4s19.68-38.56,25.34-38.57c7.15,0,13.83,16.68,9,42.3C280.88,230.13,298.78,262.07,282.34,272.43Z" style="fill:#37474f"></path><polygon points="258.22 387.37 263 283.28 268.01 387.35 258.22 387.37" style="fill:#263238"></polygon><polygon points="261.06 326.92 279.48 305.35 265.04 329.76 261.06 326.92" style="fill:#263238"></polygon><path d="M127.7,267.83S95.39,340,148.4,340,167,265.34,167,265.34s12.26-5.42-2-45.64-20.64-40.22-26.55-40.21c-7.47,0-14.4,17.44-9.27,44.17C129.13,223.66,110.52,257.06,127.7,267.83Z" style="fill:#37474f"></path><polygon points="153.15 387.79 147.92 279.12 142.93 387.8 153.15 387.79" style="fill:#263238"></polygon><polygon points="150.05 324.68 130.76 302.2 145.9 327.66 150.05 324.68" style="fill:#263238"></polygon><path d="M596.25,259.31s-17.27-6.83-30.93,17c-14,24.45,3.6,40.53,17.56,30.93,0,0,11,23,32.89,17.49s25.44-23,25.44-23,19.45,1.34,20-13.17-13.72-27.38-13.72-27.38-.86-36.15-24.42-35.85S596.25,259.31,596.25,259.31Z" style="fill:#455a64"></path><polygon points="612.41 387.42 617.22 279.83 622.27 387.4 612.41 387.42" style="fill:#263238"></polygon><polygon points="615.74 320.14 600.65 290.1 618.72 315.5 615.74 320.14" style="fill:#263238"></polygon></g><g id="freepik--Floor--inject-56"><rect x="33.68" y="443.37" width="682.63" height="7.27" style="fill:#c7c7c7"></rect><path d="M81.54,443.37a7.86,7.86,0,0,1,.81,3.64,7.73,7.73,0,0,1-.81,3.63,7.73,7.73,0,0,1-.81-3.63A7.86,7.86,0,0,1,81.54,443.37Z" style="fill:#263238"></path><path d="M134.9,443.37a8.56,8.56,0,0,1,0,7.27,7.61,7.61,0,0,1-.81-3.63A7.74,7.74,0,0,1,134.9,443.37Z" style="fill:#263238"></path><path d="M188.25,443.37a7.74,7.74,0,0,1,.81,3.64,7.61,7.61,0,0,1-.81,3.63,8.56,8.56,0,0,1,0-7.27Z" style="fill:#263238"></path><path d="M241.61,443.37a7.86,7.86,0,0,1,.81,3.64,7.73,7.73,0,0,1-.81,3.63,7.73,7.73,0,0,1-.81-3.63A7.86,7.86,0,0,1,241.61,443.37Z" style="fill:#263238"></path><path d="M295,443.37a8.56,8.56,0,0,1,0,7.27,7.74,7.74,0,0,1-.82-3.63A7.88,7.88,0,0,1,295,443.37Z" style="fill:#263238"></path><path d="M348.32,443.37a7.74,7.74,0,0,1,.81,3.64,7.61,7.61,0,0,1-.81,3.63,7.73,7.73,0,0,1-.81-3.63A7.86,7.86,0,0,1,348.32,443.37Z" style="fill:#263238"></path><path d="M401.68,443.37a7.86,7.86,0,0,1,.81,3.64,7.73,7.73,0,0,1-.81,3.63,7.61,7.61,0,0,1-.81-3.63A7.74,7.74,0,0,1,401.68,443.37Z" style="fill:#263238"></path><path d="M455,443.37a7.88,7.88,0,0,1,.82,3.64,7.74,7.74,0,0,1-.82,3.63,8.56,8.56,0,0,1,0-7.27Z" style="fill:#263238"></path><path d="M508.39,443.37a7.86,7.86,0,0,1,.81,3.64,7.73,7.73,0,0,1-.81,3.63,7.73,7.73,0,0,1-.81-3.63A7.86,7.86,0,0,1,508.39,443.37Z" style="fill:#263238"></path><path d="M561.75,443.37a8.56,8.56,0,0,1,0,7.27,7.61,7.61,0,0,1-.81-3.63A7.74,7.74,0,0,1,561.75,443.37Z" style="fill:#263238"></path><path d="M615.1,443.37a7.74,7.74,0,0,1,.81,3.64,7.61,7.61,0,0,1-.81,3.63,8.56,8.56,0,0,1,0-7.27Z" style="fill:#263238"></path><path d="M668.46,443.37a7.86,7.86,0,0,1,.81,3.64,7.73,7.73,0,0,1-.81,3.63,7.73,7.73,0,0,1-.81-3.63A7.86,7.86,0,0,1,668.46,443.37Z" style="fill:#263238"></path><polygon points="33.19 450.64 118.64 450.4 204.1 450.31 375 450.14 545.9 450.31 631.36 450.4 716.81 450.64 631.36 450.88 545.9 450.97 375 451.14 204.1 450.97 118.64 450.88 33.19 450.64" style="fill:#263238"></polygon><polygon points="33.19 387.99 118.64 387.75 204.1 387.66 375 387.49 545.9 387.66 631.36 387.74 716.81 387.99 631.36 388.23 545.9 388.32 375 388.49 204.1 388.32 118.64 388.23 33.19 387.99" style="fill:#263238"></polygon></g><g id="freepik--Car--inject-56"><path d="M211.51,399.21H329.58s-12.93-55.16-59-55.16S213.54,386.89,211.51,399.21Z" style="fill:#870DF0"></path><path d="M211.51,399.21H329.58s-12.93-55.16-59-55.16S213.54,386.89,211.51,399.21Z" style="opacity:0.2"></path><path d="M554.19,405.16H672.27S659.33,350,613.23,350,556.22,392.84,554.19,405.16Z" style="fill:#870DF0"></path><path d="M554.19,405.16H672.27S659.33,350,613.23,350,556.22,392.84,554.19,405.16Z" style="opacity:0.2"></path><path d="M184.51,298.59c-2.53,4-7,48.32-7.24,49.87s-3.94,8.33-4,9.63-1,21.25-.45,22.54a53.77,53.77,0,0,0,4.07,6.78c.64.78,17.37,15.18,19.25,15.38s19.18.32,19.5,0,2.33-53.62,54.85-53.62S322.43,405.76,323.4,406s236,5.56,236,5.56c0-8.66.68-60.21,52.2-60.21,33.56,0,50.52,27.67,51.1,48.06.24,8.5-1.18,17.83-.71,17.83,1.55,0,6.85.39,7.75,0s11.89-7.62,12.79-7.88,7.24-.38,8.79-.77,12.4-9.89,12.59-10.27.52-4.14.58-4.46,11.05-13.76,11.57-15.25.71-13.76.71-15-20-33.59-24.61-37.08-37.8-15.12-47.49-16.86-63-9.69-64.92-11.05-92.89-53.53-108.72-57.36c-12.79-3.11-160.85,1.16-168.6,1.55S273.27,247,271.2,247s-25.84-.13-27.26.52,0,6.33,1.81,7.36S188.9,291.61,184.51,298.59Z" style="fill:#870DF0"></path><path d="M187.9,295.23c.56.51,9.82.74,10.79.36S258,256.41,258,255.28c0-.57-10.94-.42-12.26-.36S186.83,294.26,187.9,295.23Z" style="fill:#455a64"></path><path d="M252.85,294.61c2.52,7.47,308.79,21.42,310.47,17.8,1.24-2.67-26.16-24.67-39-31.84s-49.42-27.91-67.45-30-54.58-1.94-86.43-1.36c-31.59.58-68.8,1.36-82,7C277,261.08,250.84,288.68,252.85,294.61Z" style="fill:#263238"></path><path d="M261.38,290.26c.77,2.8,68.41,10.08,147.68,13.76s118.41,4.26,119.38,3.87-2.72-21.51-4.07-23.25-58.14-30.81-67.06-31.59-57.07-.87-81.39-.48-75,3.29-83.63,6.78C284.71,262.42,260.61,287.45,261.38,290.26Z" style="fill:#455a64"></path><g style="opacity:0.1"><path d="M366.3,252.8l-45.39,45.4c-8.11-.71-15.59-1.42-22.33-2.11l42.1-42.1C349.66,253.46,358.6,253.05,366.3,252.8Z" style="fill:#fff"></path><path d="M528.28,303.41,523.7,308q-6.9,0-24-.45l23.61-23.62a5.67,5.67,0,0,1,1,.72C525.33,285.88,527.49,297,528.28,303.41Z" style="fill:#fff"></path><path d="M400.18,252.37,351.9,300.65q-5.81-.4-11.38-.84l47.38-47.38C391.79,252.4,395.93,252.37,400.18,252.37Z" style="fill:#fff"></path><path d="M503.81,273.53l-33.08,33.06L459,306.15l36.71-36.69C498.46,270.83,501.19,272.2,503.81,273.53Z" style="fill:#fff"></path><path d="M332.56,254.49l-40.84,40.86h0L288.6,295l40.24-40.25Z" style="fill:#fff"></path><path d="M510.85,277.13,481,307l-3.36-.12L508.56,276Z" style="fill:#fff"></path><path d="M468,256.64l-47.88,47.88-3.34-.14,48.75-48.74C466.31,255.94,467.14,256.28,468,256.64Z" style="fill:#fff"></path><path d="M300.15,257.61,266,291.78c-1.14-.23-2.08-.45-2.81-.66l32.78-32.77C297.15,258.1,298.56,257.85,300.15,257.61Z" style="fill:#fff"></path></g><path d="M303.81,257.09c.32,0,.46.42.19,1.16-1.59,4.4-14,29.3-17.09,35.11a2.62,2.62,0,0,1-1.75,1.23L307,296.93a1.77,1.77,0,0,1-1.07-2c.21-1.37,8.32-30.65,10.87-37.83a3,3,0,0,1,1.46-1.54c.43,0-3.73.06-7.67.47C307.11,256.42,303.81,257.09,303.81,257.09Z" style="fill:#263238"></path><path d="M332.61,254.49s.4.22.41,1c.14,6.89.91,41.37.25,43.27a.75.75,0,0,1-.32.45l4.13.33a2.11,2.11,0,0,1-.38-1c-.46-5.83-.88-37.43-.8-43.28a1.79,1.79,0,0,1,.39-1Z" style="fill:#263238"></path><path d="M400.5,253.79c.49,1.53,1.29,46.55,1.29,48s-1.65,1.8-1.65,1.8l25.59,1.18s-1.65-.46-2-1.24-8.33-49.32-8.28-49.95,1.31-1.23,1.31-1.23H399A2.71,2.71,0,0,1,400.5,253.79Z" style="fill:#263238"></path><path d="M189,304.92c-3.14.41-10.21,7.75-10.72,9.3s-2.46,12-1.42,13.57,4.78,5.43,8,5.55,19-7.36,20.41-8.65,2.45-9.16.77-11.69S193,304.4,189,304.92Z" style="fill:#fff"></path><path d="M205.31,324.69c-1.42,1.29-17.19,8.78-20.41,8.66-2.47-.1-5.23-2.39-6.86-4.15a10.42,10.42,0,0,0,6.31,2c1.74-.16,16.5-6.51,18.4-8.24s2-8.28,1.72-9.46-9.78-7.33-9.78-7.33C199.4,308,205,311.3,206.08,313,207.76,315.53,206.73,323.39,205.31,324.69Z" style="fill:#ebebeb"></path><path d="M176,363.38c-.87.88-1.16,7.43-.26,8s6.2.52,7.24,0,3.68-5.42,3.49-7.1S177,362.35,176,363.38Z" style="fill:#fff"></path><path d="M647.62,327.08c2.79,4.51,23.26,12.5,30.91,13.76,4.82.79,21.51,1.84,22.48,1s-7.07-12-11.24-14.73-25-9.69-31.3-9.4S644.81,322.52,647.62,327.08Z" style="fill:#fff"></path><path d="M701,341.81c-1,.87-17.67-.18-22.49-1-7.65-1.26-28.12-9.25-30.91-13.77s4.55-9.1,10.85-9.39a12.45,12.45,0,0,1,1.47,0c-5.86,2.16-7.06,6.74-3.49,9.36s15,8.75,19.6,10c4.4,1.24,20.85,3.8,22.27,2.68a2.89,2.89,0,0,0,.62-2.37C700.45,339.68,701.38,341.48,701,341.81Z" style="fill:#ebebeb"></path><g style="opacity:0.2"><path d="M211.51,357.5c-1-2.33-2-4.7-3-7.07s-1.83-4.77-2.75-7.16-1.73-4.81-2.55-7.23-1.62-4.85-2.33-7.31c1.05,2.34,2,4.71,3,7.08s1.83,4.77,2.74,7.16,1.74,4.8,2.56,7.23S210.8,355,211.51,357.5Z"></path><path d="M175.17,357.5c5.09-.09,10.17-.08,15.26-.07l15.25.17,15.26.36c5.08.16,10.16.33,15.24.6-5.08.1-10.17.09-15.26.08l-15.25-.17-15.25-.37C185.33,358,180.25,357.77,175.17,357.5Z"></path><path d="M415.3,308l1.75,12.39.75,6.22c.12,1,.23,2.07.31,3.12s0,2.09,0,3.14l-.22,25-.2,12.52-.11,6.25-.05,3.13-.24,3.12-1,12.48-1.06,12.47.63-12.49.72-12.49.18-3.12,0-3.12.06-6.26.13-12.5.42-25c0-1,.09-2.1,0-3.12s-.15-2.07-.24-3.11l-.63-6.22Z"></path><path d="M552.73,313.71l2.1,12.46,1,6.23.27,1.55a9.21,9.21,0,0,1,.18,1.58c0,1.05,0,2.11,0,3.16-.07,8.42-.28,16.85-.54,25.27-.07,2.1-.16,4.21-.27,6.31a23.48,23.48,0,0,1-1.21,6.23c-1.16,4.06-2.47,8.06-3.92,12a91.77,91.77,0,0,1-5,11.61l-.78,1.39c-.27.45-.58.89-.86,1.34a11.65,11.65,0,0,1-1,1.28l-.51.62a2,2,0,0,1-.92.28c-2.13.22-4.23.25-6.34.32-16.85.35-33.7.19-50.55.08s-33.69-.37-50.53-.67-33.69-.78-50.53-1.4c-8.41-.34-16.83-.62-25.24-1.38a19.45,19.45,0,0,1-3.2-.5c-.59-.23-.94-.5-1.44-.73s-.94-.45-1.42-.67c-1.9-.86-3.87-1.62-5.78-2.57A22.67,22.67,0,0,1,341,394a49.91,49.91,0,0,1-3.83-5.1c-4.74-7-9.27-14.07-13.81-21.17s-9-14.24-13.46-21.39S301,332,296.7,324.78l-1.61-2.72c-.13-.22-.26-.48-.39-.71l-.18-.36a1.39,1.39,0,0,1-.06-.4l-.15-1.57c-.18-2.1-.35-4.2-.42-6.31,0-.52,0-1,0-1.58a10.2,10.2,0,0,1,.34-1.55c.29-1,.64-2,1-3,.7-2,1.46-3.95,2.24-5.91q-1.15,2.94-2.19,5.93c-.34,1-.68,2-1,3a8.27,8.27,0,0,0-.32,1.54c0,.52,0,1.05,0,1.57.09,2.1.27,4.2.47,6.3l.16,1.57a2.5,2.5,0,0,0,.06.38l.19.33c.12.23.23.45.37.68l1.63,2.7c4.4,7.18,8.88,14.31,13.38,21.43,9,14.25,17.93,28.53,27.38,42.46a51.24,51.24,0,0,0,3.76,5,22,22,0,0,0,5.18,3.42c1.87.93,3.83,1.69,5.77,2.55.48.22,1,.44,1.44.68s1,.56,1.37.69a19.15,19.15,0,0,0,3,.46c8.37.73,16.8,1,25.21,1.3,16.83.58,33.67.94,50.52,1.26s33.68.62,50.52.82,33.69.36,50.53.06c2.09-.06,4.21-.09,6.28-.3l.59-.1.49-.6a10.28,10.28,0,0,0,.93-1.24c.28-.43.59-.86.85-1.31l.78-1.36a91.65,91.65,0,0,0,5-11.53q2.19-5.91,3.95-12a23.15,23.15,0,0,0,1.21-6.12l.29-6.31c.33-8.41.61-16.83.75-25.25,0-1.05,0-2.11,0-3.16A9.21,9.21,0,0,0,556,334l-.25-1.56-1-6.23Z"></path><path d="M661.13,335.13a57.4,57.4,0,0,1-7,5c-2.4,1.55-4.86,3-7.31,4.51s-4.94,2.9-7.45,4.28-5,2.76-7.59,4c2.39-1.6,4.82-3.11,7.25-4.62l7.35-4.45,7.4-4.33,3.71-2.17A36.75,36.75,0,0,0,661.13,335.13Z"></path><polygon points="306.53 359.76 339.35 360.62 372.16 361.62 437.78 363.62 503.4 365.92 536.2 367.07 569 368.36 536.19 367.5 503.38 366.5 437.75 364.49 372.14 362.2 339.33 361.05 306.53 359.76"></polygon><path d="M304.6,312.74l-1.28.06-.32,0c-.07,0-.09.06-.13.16a3,3,0,0,0-.11.61,16.42,16.42,0,0,0-.06,2.53c0,.42.05.85.11,1.25a2.19,2.19,0,0,0,.15.54l0,0h.09l.25,0c.83.07,1.69.09,2.54.12,3.41.11,6.83.22,10.24.28l5.12.15,2.56,0h1.05c.06,0,.1,0,.05,0a1.11,1.11,0,0,0,.13-.31,3.73,3.73,0,0,0,.12-.58,13.88,13.88,0,0,0,.12-2.5,10,10,0,0,0-.12-1.24,2.17,2.17,0,0,0-.13-.48,1.46,1.46,0,0,0-.48-.14c-1.66-.29-3.38-.38-5.08-.55a49.4,49.4,0,0,1,5.15.13,1.34,1.34,0,0,1,.72.22,1.56,1.56,0,0,1,.3.72,9.94,9.94,0,0,1,.19,1.3,15.28,15.28,0,0,1,0,2.62,5.35,5.35,0,0,1-.11.68,1.17,1.17,0,0,1-.47.78.5.5,0,0,1-.25.09h-.19a2.18,2.18,0,0,1-.35,0h-3.22l-5.13-.07c-3.42-.13-6.84-.23-10.26-.48-.86-.07-1.7-.13-2.57-.25a1.35,1.35,0,0,1-.39-.08.69.69,0,0,1-.21-.08.55.55,0,0,1-.16-.22,2.49,2.49,0,0,1-.16-.7,9.69,9.69,0,0,1-.05-1.31,15.88,15.88,0,0,1,.25-2.58,3.79,3.79,0,0,1,.17-.64c0-.05.05-.1.09-.16a.23.23,0,0,1,.21-.09h.32Z"></path><path d="M430.19,315.84l-1.29.07h-.32c-.06,0-.08.06-.12.16a3,3,0,0,0-.11.61,15.37,15.37,0,0,0-.06,2.54c0,.42,0,.84.11,1.25a2,2,0,0,0,.15.54s0,.05,0,0h.1c.06,0,.12,0,.25,0,.82.08,1.69.1,2.54.13,3.41.11,6.82.22,10.24.27l5.12.15,2.56,0h1.05c.06,0,.09,0,.05,0a1.72,1.72,0,0,0,.13-.32,4.56,4.56,0,0,0,.12-.58,13.84,13.84,0,0,0,.11-2.5,10,10,0,0,0-.11-1.24,1.89,1.89,0,0,0-.13-.47,1.25,1.25,0,0,0-.48-.14c-1.66-.29-3.39-.39-5.08-.56a49.14,49.14,0,0,1,5.14.13,1.42,1.42,0,0,1,.73.23,1.53,1.53,0,0,1,.3.71,11.81,11.81,0,0,1,.19,1.31,15.28,15.28,0,0,1,0,2.62,5.65,5.65,0,0,1-.11.68,1.17,1.17,0,0,1-.47.78.4.4,0,0,1-.25.08l-.19,0H450l-.65,0H446.8l-5.13-.07c-3.42-.13-6.84-.23-10.26-.48-.86-.07-1.71-.13-2.58-.25a2.61,2.61,0,0,1-.38-.08,1.8,1.8,0,0,1-.21-.08.74.74,0,0,1-.17-.23,2.75,2.75,0,0,1-.15-.7,9.57,9.57,0,0,1-.05-1.31,16.1,16.1,0,0,1,.25-2.58,3.68,3.68,0,0,1,.17-.63.51.51,0,0,1,.09-.16.23.23,0,0,1,.2-.1l.32,0Z"></path></g><circle cx="269.52" cy="401.8" r="48.84" transform="translate(-205.18 308.27) rotate(-45)" style="fill:#263238"></circle><circle cx="269.52" cy="401.8" r="35.66" transform="translate(-205.18 308.27) rotate(-45)" style="fill:#dbdbdb"></circle><circle cx="269.52" cy="401.8" r="32.88" style="fill:#a6a6a6"></circle><path d="M274.68,393.56H264.36c3.48-5-8.66-22.6-8.66-22.6l5.43-1.82c3.61,6.2,5.42,8,8.39,8s4.78-1.82,8.4-8l5.42,1.82S271.2,388.52,274.68,393.56Z" style="fill:#dbdbdb"></path><path d="M263.49,394.19,260.3,404c-3.71-4.87-24.17,1.25-24.17,1.25l0-5.73c7-1.52,9.3-2.67,10.22-5.5s-.25-5.11-5-10.47l3.4-4.59S257.63,395.94,263.49,394.19Z" style="fill:#dbdbdb"></path><path d="M260.63,405l8.36,6.07c-5.78,2-6.28,23.38-6.28,23.38l-5.47-1.72c.73-7.14.33-9.68-2.07-11.42s-4.94-1.34-11.51,1.54l-3.32-4.65S260.49,411.15,260.63,405Z" style="fill:#dbdbdb"></path><path d="M270.05,411.09l8.36-6.07c.14,6.12,20.29,13.2,20.29,13.2l-3.33,4.66c-6.57-2.89-9.1-3.3-11.5-1.55s-2.8,4.28-2.09,11.42l-5.45,1.72S275.83,413.12,270.05,411.09Z" style="fill:#dbdbdb"></path><path d="M278.74,404l-3.19-9.82c5.86,1.75,18.81-15.22,18.81-15.22l3.41,4.6c-4.78,5.35-5.95,7.63-5,10.46s3.2,4,10.22,5.51l0,5.72S282.45,399.14,278.74,404Z" style="fill:#dbdbdb"></path><circle cx="269.52" cy="401.57" r="9.54" style="fill:#dbdbdb"></circle><circle cx="611.23" cy="401.8" r="48.84" transform="translate(-108.92 273.59) rotate(-23.22)" style="fill:#263238"></circle><circle cx="611.23" cy="401.8" r="35.66" transform="translate(81.53 906.25) rotate(-76.92)" style="fill:#dbdbdb"></circle><circle cx="611.23" cy="401.8" r="32.88" style="fill:#a6a6a6"></circle><path d="M616.39,393.56H606.06c3.49-5-8.66-22.6-8.66-22.6l5.43-1.82c3.62,6.2,5.42,8,8.4,8s4.78-1.82,8.4-8l5.42,1.82S612.91,388.52,616.39,393.56Z" style="fill:#dbdbdb"></path><path d="M605.2,394.19,602,404c-3.71-4.87-24.17,1.25-24.17,1.25l-.05-5.73c7-1.52,9.3-2.67,10.22-5.5s-.26-5.11-5-10.47l3.4-4.59S599.33,395.94,605.2,394.19Z" style="fill:#dbdbdb"></path><path d="M602.34,405l8.35,6.07c-5.78,2-6.27,23.38-6.27,23.38L599,432.75c.72-7.14.33-9.68-2.07-11.42s-4.94-1.34-11.52,1.54l-3.31-4.65S602.2,411.15,602.34,405Z" style="fill:#dbdbdb"></path><path d="M611.76,411.09l8.36-6.07c.14,6.12,20.29,13.2,20.29,13.2l-3.33,4.66c-6.57-2.89-9.1-3.3-11.5-1.55s-2.8,4.28-2.09,11.42L618,434.47S617.54,413.12,611.76,411.09Z" style="fill:#dbdbdb"></path><path d="M620.45,404l-3.2-9.82c5.87,1.75,18.82-15.22,18.82-15.22l3.41,4.6c-4.78,5.35-6,7.63-5,10.46s3.2,4,10.22,5.51l0,5.72S624.16,399.14,620.45,404Z" style="fill:#dbdbdb"></path><circle cx="611.23" cy="401.57" r="9.54" style="fill:#dbdbdb"></circle><path d="M517.22,289.68c-1.78,1.77-1.61,17.7-.32,19s19,2.45,20.41-7.43S520,286.9,517.22,289.68Z" style="fill:#870DF0"></path><path d="M581.82,299.19h-14.4C530,274.47,478.52,250,478.52,250l8.54-2.06c31.13,15.07,91.15,49.54,92.73,50.64A9,9,0,0,0,581.82,299.19Z" style="fill:#455a64"></path><g style="opacity:0.5"><path d="M211.51,369.91a62.88,62.88,0,0,1,11-13.45,69.23,69.23,0,0,1,14.07-10.24A68.25,68.25,0,0,1,270.11,338l4.37.2,2.18.11c.72.08,1.45.2,2.17.29l4.33.62c1.42.3,2.83.68,4.25,1a53.81,53.81,0,0,1,16,6.87,56.43,56.43,0,0,1,13,11.59,77.71,77.71,0,0,1,9.15,14.75A81.65,81.65,0,0,0,316,359a55.46,55.46,0,0,0-13-11.2c-9.78-6.11-21.4-8.59-32.85-8.7A70,70,0,0,0,253,341,67.58,67.58,0,0,0,237,347a68.93,68.93,0,0,0-14.11,9.87A65.26,65.26,0,0,0,211.51,369.91Z" style="fill:#fff"></path><path d="M553.67,369.91a62.88,62.88,0,0,1,11-13.45,69.23,69.23,0,0,1,14.07-10.24A68.25,68.25,0,0,1,612.27,338l4.37.2,2.18.11c.73.08,1.45.2,2.17.29l4.33.62c1.42.3,2.84.68,4.25,1a53.81,53.81,0,0,1,16,6.87,56.22,56.22,0,0,1,13,11.59,78.27,78.27,0,0,1,9.16,14.75c-2.84-5-5.78-10.06-9.6-14.38a55.46,55.46,0,0,0-13-11.2c-9.78-6.11-21.4-8.59-32.85-8.7A70,70,0,0,0,595.19,341,67.58,67.58,0,0,0,579.11,347,68.93,68.93,0,0,0,565,356.88,65.58,65.58,0,0,0,553.67,369.91Z" style="fill:#fff"></path><path d="M218.58,288.86c7.61-6,15.33-11.78,23.1-17.53s15.63-11.38,23.71-16.74c1-.65,2.05-1.29,3.11-1.91.52-.31,1.07-.6,1.62-.89a11.39,11.39,0,0,1,1.78-.66c2.34-.69,4.68-1.28,7-1.87,4.7-1.15,9.41-2.27,14.17-3.19a83.74,83.74,0,0,1,14.46-1.49c4.84-.1,9.68-.09,14.51.13-4.84,0-9.67.14-14.48.44a83.58,83.58,0,0,0-14.31,1.79c-4.71,1.06-9.41,2.15-14.09,3.35-2.33.6-4.67,1.21-7,1.9a9.27,9.27,0,0,0-1.61.61c-.52.27-1,.56-1.55.87-1,.6-2,1.25-3.05,1.9-8.09,5.24-15.92,10.92-23.81,16.49Z" style="fill:#fff"></path></g><path d="M597.41,352.81c-37.42,8.56-38,50.93-38,58.7,0,0-235.08-5.36-236-5.56-.79-.16-.55-37.26-28.29-51.4,12.46,6.17,28.43,21.09,34.47,42.88.66,2.32,34.89,6,93.41,7.84s109.39.68,119-.67S563,352.66,597.41,352.81Z" style="opacity:0.1"></path><path d="M716.1,378.56c-.52,1.49-11.51,14.92-11.57,15.25s-.38,4.07-.58,4.46-11.05,9.89-12.6,10.27-7.88.51-8.77.77-11.89,7.49-12.8,7.88-6.2,0-7.75,0c-.47,0,1-9.34.71-17.82-.42-14.81-9.47-33.44-27.23-42.55,9.64,2.06,25.71,15.21,32.2,28.78s4.83,14.57,6.35,16.2,6.55-1.66,8.87-2.25,9.88-.77,12.79-1.35,3.38-5.81,5.38-7S713.22,382,716.1,378.56Z" style="opacity:0.1"></path><path d="M254.59,315.93v.22a10.47,10.47,0,0,1-3,7.26,10.6,10.6,0,0,1-15,.22,10.59,10.59,0,0,1,0-15.19,10.6,10.6,0,0,1,15,.22A10.48,10.48,0,0,1,254.59,315.93Z" style="opacity:0.30000000000000004"></path><path d="M226.15,326.19a6.41,6.41,0,0,1-5-3.09,13.45,13.45,0,0,1,0-14.13,6.34,6.34,0,0,1,4.94-3.08,6.19,6.19,0,0,1,5.1,2.86,12.12,12.12,0,0,1,2,5.1,12.33,12.33,0,0,0-1.91-5.19,6.62,6.62,0,0,0-5.17-3.21,6.47,6.47,0,0,0-5.32,3,14,14,0,0,0,0,15.19,6.46,6.46,0,0,0,5.31,3,6.62,6.62,0,0,0,5.17-3.21,12.75,12.75,0,0,0,2.05-6.35,12.5,12.5,0,0,1-2.12,6.26A6.17,6.17,0,0,1,226.15,326.19Zm7.08-12.34c.05.39.12.78.14,1.17C233.34,314.63,233.29,314.24,233.23,313.85Z" style="opacity:0.30000000000000004"></path><path d="M233.41,316c0,.34,0,.68,0,1a12.5,12.5,0,0,1-2.12,6.26,6.17,6.17,0,0,1-5.1,2.87,6.41,6.41,0,0,1-5-3.09,13.45,13.45,0,0,1,0-14.13,6.34,6.34,0,0,1,4.94-3.08,6.19,6.19,0,0,1,5.1,2.86,12.53,12.53,0,0,1,2.12,6.27C233.4,315.36,233.41,315.7,233.41,316Z" style="opacity:0.30000000000000004"></path><path d="M250.45,315.92v.14a6.61,6.61,0,0,1-6.47,6.53,6.64,6.64,0,0,1-4.74-1.86,6.59,6.59,0,0,1,0-9.48,6.64,6.64,0,0,1,4.74-1.86,6.61,6.61,0,0,1,6.47,6.53Z" style="fill:#263238"></path></g></svg>
